# xmcd
#
# Track frame offsets:
# 150
# 50196
# 86826
# 132985
# 150939
# 181463
# 182549
# 206901
# 244551
# 313158
#
# Disc length: 4763 seconds
#
# Revision: 0
# Processed by: cddbd v1.5.2PL0 Copyright (c) Steve Scherf et al.
# Submitted via: Audion 3.0.2 (http://www.panic.com/audion/)
#
DISCID=8a12990a
DTITLE=Altered Native - Free at the Fawcett Inn
DYEAR=1900
DGENRE=
TTITLE0=hello
TTITLE1=one love
TTITLE2=need-i-ness
TTITLE3=rise up
TTITLE4=playtime
TTITLE5=rob a job
TTITLE6=phyliss stein
TTITLE7=why do this?
TTITLE8=interceptor raptor
TTITLE9=tonality
EXTD=
EXTT0=
EXTT1=
EXTT2=
EXTT3=
EXTT4=
EXTT5=
EXTT6=
EXTT7=
EXTT8=
EXTT9=
PLAYORDER=
